Hanif_Medium_7_5_grf.mot
version=1
nRows=58
nColumns=19
inDegrees=yes
endheader
time	right_ground_force_vx	right_ground_force_vy	right_ground_force_vz	right_ground_force_px	right_ground_force_py	right_ground_force_pz	right_ground_torque_x	right_ground_torque_y	right_ground_torque_z	left_ground_force_vx	left_ground_force_vy	left_ground_force_vz	left_ground_force_px	left_ground_force_py	left_ground_force_pz	left_ground_torque_x	left_ground_torque_y	left_ground_torque_z
5.725000	-10.568600	195.122000	50.885500	0.230973	0.000000	-1.420580	-16.702900	-1.827740	6.213250	0.793808	245.086000	-70.161100	0.202140	0.000000	-0.973461	17.255100	-4.202550	1.754400
5.730000	-11.183000	195.439000	50.981600	0.232330	0.000000	-1.419210	-17.010500	-1.783590	6.536320	1.920350	244.106000	-71.240100	0.201328	0.000000	-0.973691	17.222000	-4.361630	1.585070
5.735000	-11.923400	197.092000	51.334400	0.232354	0.000000	-1.418240	-17.348800	-1.858770	6.597750	3.346700	242.653000	-72.687700	0.201687	0.000000	-0.973638	17.079600	-4.528070	1.731590
5.740000	-12.634600	200.036000	51.573600	0.233067	0.000000	-1.419710	-17.319900	-1.868570	6.853660	5.291910	244.484000	-74.161900	0.201374	0.000000	-0.973079	17.038000	-4.666380	1.669880
5.745000	-12.338600	201.665000	52.839200	0.233680	0.000000	-1.418190	-17.768300	-1.896850	7.045280	6.947770	248.028000	-76.179200	0.202066	0.000000	-0.973823	17.440500	-4.814400	1.888350
5.750000	-11.135500	203.928000	53.751700	0.233577	0.000000	-1.417990	-18.001400	-1.786680	7.110340	7.609480	252.224000	-78.116200	0.201763	0.000000	-0.974138	17.806300	-4.926590	1.845450
5.755000	-10.127200	205.528000	54.596900	0.233286	0.000000	-1.417540	-18.231600	-1.697210	7.111120	7.733630	253.256000	-78.401700	0.202091	0.000000	-0.974675	18.010100	-5.038680	1.968440
5.760000	-8.692510	206.977000	55.215800	0.233402	0.000000	-1.417080	-18.445100	-1.633270	7.176020	7.305920	255.520000	-78.669400	0.203436	0.000000	-0.975075	18.280100	-5.030500	2.347910
5.765000	-7.448150	212.379000	56.683600	0.233476	0.000000	-1.417960	-18.731800	-1.564120	7.373690	6.860570	257.719000	-78.696200	0.204581	0.000000	-0.975564	18.570500	-5.045080	2.679230
5.770000	-7.043820	216.006000	57.185400	0.233314	0.000000	-1.418070	-19.027500	-1.473850	7.474090	6.774510	259.496000	-78.692700	0.204704	0.000000	-0.976068	18.832400	-5.048530	2.713760
5.775000	-6.102510	219.612000	57.220200	0.233632	0.000000	-1.418400	-19.264200	-1.513690	7.632300	5.745810	258.113000	-77.996700	0.205489	0.000000	-0.975663	18.642800	-5.040070	2.942930
5.780000	-6.771430	220.357000	57.645100	0.233547	0.000000	-1.416610	-19.728100	-1.542500	7.653120	4.896310	255.356000	-76.681200	0.205291	0.000000	-0.975879	18.511700	-5.081940	2.891960
5.785000	-6.714910	224.308000	57.766600	0.233617	0.000000	-1.417930	-19.784300	-1.568770	7.788930	5.027170	253.396000	-75.964800	0.204917	0.000000	-0.976317	18.476900	-5.101780	2.776850
5.790000	-6.395890	228.978000	59.372200	0.233643	0.000000	-1.416410	-20.542000	-1.583370	7.959420	6.491860	255.155000	-75.958400	0.205218	0.000000	-0.975602	18.394100	-5.212040	2.860760
5.795000	-6.133740	236.043000	60.555700	0.233659	0.000000	-1.417070	-21.017200	-1.575980	8.203460	7.374820	253.442000	-76.687700	0.205393	0.000000	-0.977581	18.750900	-5.324450	2.936550
5.800000	-5.311280	241.602000	61.327900	0.233671	0.000000	-1.418020	-21.280900	-1.438140	8.412680	7.498480	254.692000	-76.677600	0.205412	0.000000	-0.977320	18.778900	-5.229810	2.910140
5.805000	-5.321730	244.949000	61.728800	0.233084	0.000000	-1.417740	-21.642600	-1.420510	8.378990	7.419270	254.462000	-76.327300	0.206063	0.000000	-0.975939	18.408400	-5.285100	3.104570
5.810000	-5.460810	246.776000	61.216400	0.232974	0.000000	-1.416890	-22.015200	-1.342680	8.425660	6.933620	255.019000	-75.584300	0.206671	0.000000	-0.977177	18.774300	-5.238690	3.250970
5.815000	-5.254540	249.770000	61.931600	0.232486	0.000000	-1.418240	-21.942400	-1.394200	8.381500	6.484800	257.527000	-74.649700	0.208613	0.000000	-0.977754	19.118400	-5.115110	3.746780
5.820000	-5.589890	251.572000	62.544900	0.232340	0.000000	-1.419090	-21.888100	-1.435400	8.402590	5.176890	259.126000	-73.472400	0.209708	0.000000	-0.977042	19.079300	-5.023890	4.033640
5.825000	-5.777950	252.801000	62.323000	0.231531	0.000000	-1.417320	-22.444900	-1.291780	8.263520	3.573580	259.741000	-72.358300	0.210576	0.000000	-0.979003	19.667900	-4.825940	4.228960
5.830000	-5.823920	254.740000	62.383000	0.231641	0.000000	-1.417400	-22.597200	-1.319990	8.346740	2.450770	261.519000	-71.981500	0.212204	0.000000	-0.978415	19.672100	-4.689950	4.673380
5.835000	-6.180660	260.822000	63.554800	0.232128	0.000000	-1.419360	-22.625400	-1.356470	8.677290	2.000380	264.471000	-71.576400	0.213287	0.000000	-0.979369	20.156300	-4.644510	4.987000
5.840000	-6.130410	267.277000	64.217100	0.232389	0.000000	-1.419420	-23.169400	-1.421930	8.942570	1.621330	271.616000	-71.574700	0.214606	0.000000	-0.978787	20.552100	-4.569700	5.414520
5.845000	-6.503830	270.228000	64.491000	0.231720	0.000000	-1.418470	-23.683100	-1.349200	8.873740	1.411440	274.391000	-72.021000	0.214961	0.000000	-0.979306	20.908800	-4.622880	5.573250
5.850000	-5.852920	273.565000	64.265200	0.230970	0.000000	-1.419220	-23.766300	-1.246610	8.766460	0.710664	278.017000	-71.322900	0.215640	0.000000	-0.979635	21.291500	-4.527830	5.781990
5.855000	-6.132350	273.745000	64.475300	0.230891	0.000000	-1.420220	-23.512500	-1.175810	8.772420	0.308360	277.554000	-70.300300	0.215971	0.000000	-0.979728	21.290000	-4.496910	5.850260
5.860000	-6.397250	276.128000	64.469400	0.229916	0.000000	-1.420000	-23.777800	-1.098830	8.582750	-0.472874	278.380000	-69.042500	0.215747	0.000000	-0.979872	21.409200	-4.471560	5.771270
5.865000	-7.092810	277.974000	64.555200	0.229497	0.000000	-1.419700	-24.025300	-1.108120	8.526520	-1.121680	276.065000	-67.630400	0.215173	0.000000	-0.980950	21.541600	-4.391060	5.537170
5.870000	-8.152660	281.776000	64.364000	0.229373	0.000000	-1.421460	-23.865600	-1.027610	8.631010	-2.012510	273.966000	-66.064700	0.214721	0.000000	-0.980045	21.148400	-4.406260	5.367380
5.875000	-8.774480	278.178000	63.739600	0.228669	0.000000	-1.420880	-23.729400	-0.972254	8.342250	-2.282210	271.893000	-64.501000	0.214042	0.000000	-0.979470	20.837600	-4.392400	5.116150
5.880000	-9.532160	280.451000	63.613400	0.226734	0.000000	-1.422050	-23.600300	-0.815968	7.879670	-2.411740	269.769000	-63.265600	0.214070	0.000000	-0.979685	20.735700	-4.342860	5.066350
5.885000	-9.222470	279.436000	64.065600	0.225757	0.000000	-1.421820	-23.577800	-0.740209	7.584170	-3.156080	266.878000	-61.668900	0.213885	0.000000	-0.980812	20.829000	-4.197010	4.929980
5.890000	-9.319140	280.096000	63.689600	0.224639	0.000000	-1.423640	-23.126700	-0.607641	7.294390	-3.836380	264.303000	-59.839900	0.213388	0.000000	-0.979978	20.422900	-4.228820	4.744100
5.895000	-9.226290	275.299000	63.256300	0.223466	0.000000	-1.422920	-22.928400	-0.581799	6.843770	-4.502150	258.922000	-58.170700	0.212672	0.000000	-0.980108	20.055100	-4.110120	4.448010
5.900000	-9.195790	272.022000	62.846300	0.222378	0.000000	-1.423740	-22.435100	-0.437713	6.485910	-4.410810	255.383000	-57.203100	0.211554	0.000000	-0.980311	19.832000	-4.098370	4.093160
5.905000	-8.452640	273.742000	62.072800	0.221466	0.000000	-1.424640	-22.323200	-0.328526	6.259600	-4.402310	257.219000	-56.705300	0.211446	0.000000	-0.979670	19.807400	-4.062170	4.057100
5.910000	-9.107950	276.514000	61.936200	0.220866	0.000000	-1.424750	-22.527700	-0.177245	6.185390	-4.495490	259.002000	-56.360700	0.212632	0.000000	-0.980227	20.091300	-4.089420	4.392100
5.915000	-9.108590	278.707000	60.955800	0.220104	0.000000	-1.424510	-22.769900	-0.205204	5.988510	-4.587770	261.247000	-55.703600	0.212994	0.000000	-0.979661	20.116200	-3.978180	4.472150
5.920000	-9.263450	280.331000	60.387400	0.219956	0.000000	-1.425450	-22.639500	-0.156202	5.980960	-4.023610	262.441000	-55.886400	0.213306	0.000000	-0.980024	20.291000	-3.951830	4.557940
5.925000	-9.321660	282.150000	60.316200	0.219054	0.000000	-1.425250	-22.847000	0.012119	5.785400	-3.121410	266.914000	-56.471100	0.213061	0.000000	-0.980171	20.656100	-3.979480	4.535260
5.930000	-9.311880	287.035000	60.173800	0.219076	0.000000	-1.425910	-23.051300	0.010850	5.874680	-3.074500	271.015000	-56.272800	0.214530	0.000000	-0.979526	20.795800	-3.899520	4.966130
5.935000	-10.012200	291.210000	59.647100	0.218581	0.000000	-1.425540	-23.499800	0.116533	5.826840	-3.196710	272.642000	-56.001700	0.215116	0.000000	-0.980389	21.157100	-3.825720	5.131870
5.940000	-10.893500	296.022000	59.842700	0.218491	0.000000	-1.425980	-23.762400	0.082567	5.890370	-3.458750	272.748000	-56.231500	0.215568	0.000000	-0.980112	21.094500	-3.772650	5.259490
5.945000	-11.438100	298.402000	59.709200	0.217960	0.000000	-1.427450	-23.519500	0.134324	5.780610	-3.762340	274.101000	-55.332100	0.216365	0.000000	-0.979823	21.123700	-3.652920	5.464320
5.950000	-12.030400	304.259000	59.862500	0.217371	0.000000	-1.426950	-24.138300	0.175578	5.711650	-4.141600	275.734000	-54.822600	0.217109	0.000000	-0.979360	21.128200	-3.618440	5.686470
5.955000	-12.033700	308.457000	60.613900	0.217589	0.000000	-1.427690	-24.241200	0.154878	5.850490	-4.917460	280.502000	-54.411100	0.218346	0.000000	-0.979361	21.505000	-3.508090	6.093110
5.960000	-12.118500	312.404000	60.825300	0.217260	0.000000	-1.428180	-24.396400	0.178441	5.815030	-5.920780	282.537000	-54.234400	0.219870	0.000000	-0.979550	21.730200	-3.335650	6.548240
5.965000	-10.906100	313.233000	60.925600	0.217013	0.000000	-1.428380	-24.388800	0.297399	5.753060	-6.710440	284.316000	-54.258800	0.219979	0.000000	-0.979260	21.796700	-3.266240	6.608180
5.970000	-10.411600	312.738000	60.190200	0.216602	0.000000	-1.428060	-24.446300	0.332973	5.604570	-6.766400	284.839000	-54.365100	0.220602	0.000000	-0.979827	21.997300	-3.154850	6.783480
5.975000	-9.217540	316.374000	60.518500	0.216286	0.000000	-1.428770	-24.495800	0.464526	5.566070	-6.570300	288.551000	-54.629300	0.220796	0.000000	-0.979768	22.260600	-3.148580	6.907350
5.980000	-8.166110	317.601000	59.805500	0.215999	0.000000	-1.428830	-24.566100	0.622116	5.497400	-5.706570	294.857000	-55.338600	0.221083	0.000000	-0.978626	22.390700	-3.147130	7.107120
5.985000	-6.885850	319.386000	59.865200	0.215391	0.000000	-1.428380	-24.839200	0.747522	5.328600	-5.680360	295.714000	-55.190100	0.221738	0.000000	-0.979023	22.573000	-3.154460	7.321550
5.990000	-6.046040	323.081000	59.318700	0.215183	0.000000	-1.429050	-24.904800	0.977842	5.335510	-4.987280	298.334000	-55.493200	0.221696	0.000000	-0.979861	23.010900	-3.239420	7.370360
5.995000	-4.939350	328.716000	58.346400	0.214897	0.000000	-1.429680	-25.124700	1.154800	5.322990	-4.138280	302.838000	-55.660300	0.221768	0.000000	-0.979263	23.160700	-3.258490	7.471700
6.000000	-4.298970	332.607000	57.682800	0.214785	0.000000	-1.430270	-25.219000	1.304420	5.348250	-3.993110	305.341000	-56.001500	0.222422	0.000000	-0.979497	23.421900	-3.337550	7.744750
6.005000	-3.581330	335.056000	57.148300	0.214705	0.000000	-1.429800	-25.557800	1.513460	5.375030	-3.845380	309.031000	-55.956500	0.222475	0.000000	-0.979472	23.692700	-3.299360	7.823900
6.010000	-4.005860	334.785000	55.925300	0.214152	0.000000	-1.429780	-25.550100	1.638820	5.194910	-3.467330	311.841000	-55.281500	0.223664	0.000000	-0.979743	23.986100	-3.334980	8.249700
